<?xml version="1.0" standalone="no"?><svg xmlns="http://www.w3.org/2000/svg" viewBox="0 0 1440 320"><path fill="#00cba9" fill-opacity="1" d="M0,288L30,282.7C60,277,120,267,180,250.7C240,235,300,213,360,224C420,235,480,277,540,266.7C600,256,660,192,720,170.7C780,149,840,171,900,170.7C960,171,1020,149,1080,144C1140,139,1200,149,1260,154.7C1320,160,1380,160,1410,160L1440,160L1440,320L1410,320C1380,320,1320,320,1260,320C1200,320,1140,320,1080,320C1020,320,960,320,900,320C840,320,780,320,720,320C660,320,600,320,540,320C480,320,420,320,360,320C300,320,240,320,180,320C120,320,60,320,30,320L0,320Z"></path></svg>